<svg xmlns="http://www.w3.org/2000/svg" viewBox="0 0 64 64">
  <defs><linearGradient id="g" x1="8" y1="5" x2="56" y2="59" gradientUnits="userSpaceOnUse"><stop stop-color="#c056ff"/><stop offset="1" stop-color="#7c3aed"/></linearGradient></defs>
  <rect width="64" height="64" rx="16" fill="url(#g)"/>
  <path d="M32 10c-11 0-20 8.6-20 19.2C12 43.6 32 56 32 56s20-12.4 20-26.8C52 18.6 43 10 32 10Z" fill="#fff"/>
  <path d="M23 23v10.2c0 5.6 3.3 8.8 8.6 8.8 5.7 0 9.4-3.4 9.4-9.2V23h-5v9.7c0 3-1.4 4.6-4.1 4.6-2.5 0-3.9-1.5-3.9-4.4V23h-5Z" fill="#8b3cf0"/>
  <circle cx="32" cy="29" r="3" fill="#8b3cf0"/>
</svg>
