<svg xmlns="http://www.w3.org/2000/svg" width="1200" height="800" viewBox="0 0 1200 800">
  <defs>
    <linearGradient id="sky" x1="0" x2="1" y1="0" y2="1">
      <stop offset="0%" stop-color="#a742f5"/>
      <stop offset="55%" stop-color="#2563eb"/>
      <stop offset="100%" stop-color="#14b8a6"/>
    </linearGradient>
    <linearGradient id="shade" x1="0" x2="0" y1="0" y2="1">
      <stop offset="0%" stop-color="#020617" stop-opacity=".05"/>
      <stop offset="100%" stop-color="#020617" stop-opacity=".82"/>
    </linearGradient>
  </defs>
  <rect width="1200" height="800" fill="url(#sky)"/>
  <circle cx="930" cy="170" r="95" fill="#fde68a" opacity=".85"/>
  <path d="M0 540 C170 390 270 460 390 330 C520 190 650 440 780 290 C930 130 1010 420 1200 260 L1200 800 L0 800 Z" fill="#172554" opacity=".78"/>
  <path d="M0 610 C210 500 330 600 500 470 C650 350 820 590 980 460 C1080 380 1140 430 1200 390 L1200 800 L0 800 Z" fill="#022c22" opacity=".72"/>
  <path d="M0 640 C190 690 310 600 470 660 C650 735 830 600 1010 660 C1100 690 1160 680 1200 665 L1200 800 L0 800 Z" fill="#f8fafc" opacity=".18"/>
  <rect width="1200" height="800" fill="url(#shade)"/>
  <text x="72" y="560" fill="#ffffff" font-family="Inter, Arial, sans-serif" font-size="62" font-weight="800">Fort Speelwijk</text>
  <text x="74" y="625" fill="#f3e8ff" font-family="Inter, Arial, sans-serif" font-size="34" font-weight="700">Historical Site</text>
  <text x="74" y="680" fill="#e0f2fe" font-family="Inter, Arial, sans-serif" font-size="30">Serang, Banten</text>
</svg>